<svg xmlns="http://www.w3.org/2000/svg" viewBox="0 0 32 32" fill="none">
  <rect width="32" height="32" rx="8" fill="#6366f1"/>
  <path d="M16 7C11.029 7 7 11.029 7 16s4.029 9 9 9 9-4.029 9-9-4.029-9-9-9zm1 13.917V22h-2v-1.083A4.01 4.01 0 0112 17h2c0 1.103.897 2 2 2s2-.897 2-2c0-.834-.523-1.569-1.303-1.849l-2.394-.798C13.12 13.866 12 12.488 12 11c0-1.86 1.28-3.411 3-3.859V6h2v1.141C18.72 7.589 20 9.14 20 11h-2c0-1.103-.897-2-2-2s-2 .897-2 2c0 .834.523 1.569 1.303 1.849l2.394.798C18.88 14.134 20 15.512 20 17c0 1.86-1.28 3.411-3 3.917z" fill="white"/>
</svg>
